"DICAD ASC"
596
1579
2
10094
0
0
1
20050
0
1
2
2
0
"NotListRelevant"
""
""
0
0
"BI301"
79
"i:\\projects\\2026\\26-026\\02 precast\\drawings\\BI301.01.kon"
"STRAKON 2025+ .2"
0
0
0
0
0
""
0
0
0
0
0
1
"0e2FZs2g58Hw1Kbznki4uN"
1780902166
0
0
0
0
0
""
10199
0
1000
1000
10000
1779105647

#10071
1333
"1KtR1mlXr6AwkVI4_A4xTi"
"BI1 Parallelbinder (8)"
"BI301"
6
20053
0
1
1
2
0
"ConstructionMethod"
""
""
"Stahlbetonfertigteil"
0
20053
0
1
1
2
0
"StrengthClass"
""
""
"Entnehmen Sie die Angaben den Elementpl\xe4nen"
0
20053
0
1
1
2
0
"ExposureClass"
""
""
"Entnehmen Sie die Angaben den Elementpl\xe4nen"
0
20053
0
1
1
2
0
"Manufacturer"
""
""
"BREMER SE"
0
20053
0
1
1
2
0
"PlantLocation"
""
""
"Paderborn oder Leipzig"
0
20053
0
1
1
2
0
"StructuralClass"
""
""
"Tragend"
0
""
0
"0"
0
""
79
0
1
0
0
0
1
2
"1C_czvAd9CRQKoIYDuIqZ3"
1
1
-20
0
0
52
330.1361792656237
149.99999999999693
0
19038.54834811595
150.00000000000517
0
19038.54834811595
-149.99999999999517
0
330.1361792656237
-149.99999999999676
0
330.1361792656237
-89.99999999999847
0
20.000000000000007
-89.9999999999985
0
19.999999999999993
89.99999999999851
0
330.1361792656237
89.99999999999864
0
1500.799999999993
59.99999999999828
230.00000000000261
1500.799999999993
59.99999999999828
780
17900.800000000003
59.99999999999828
780
17900.800000000003
59.99999999999828
230.0000000000024
19071.500000000888
-149.99999999999608
1099.9667700483296
19071.500000000888
149.999999999994
1099.9667700483296
18200.79999999997
149.99999999999363
1099.9667700483296
18150.799999999963
200.00000000001006
1099.9667700483296
1250.8000000000084
200.00000000001006
1099.9667700483296
1200.79999999997
149.99999999998613
1099.9667700483296
363.08783115056303
149.99999999998576
1099.9667700483296
363.08783115056303
89.99999999998747
1099.9667700483296
52.951651884939345
89.99999999998732
1099.9667700483296
52.95165188493936
-89.9999999999994
1099.9667700483296
363.08783115056303
-89.99999999999937
1099.9667700483296
363.08783115056303
-149.99999999999767
1099.9667700483296
1200.7999999999934
-149.99999999999756
1099.9667700483296
1250.8000000000047
-200.0000000000062
1099.9667700483296
18150.799999999977
-200.00000000000847
1099.9667700483296
18200.799999999977
-149.99999999999613
1099.9667700483296
1200.7999999999984
149.9999999999983
805.7142857142859
1200.7999999999984
149.9999999999983
140
18200.800000000017
150.00000000000335
139.99999999999386
18200.799999999996
149.9999999999959
805.7142857142851
18200.799999999992
-149.99999999999778
805.7142857142845
18200.799999999977
-149.99999999999534
140.00000000000637
1200.7999999999984
-150.0000000000017
140
1200.7999999999984
-150.0000000000017
805.7142857142859
18150.800000000003
199.9999999999983
820
1250.799999999991
199.9999999999983
820
1250.799999999991
-200.0000000000017
820
18150.80000000001
-200.00000000000256
820.0000000000002
1500.799999999993
-60.00000000000172
780.0000000000001
17900.800000000003
-60.00000000000172
780
17900.800000000003
-60.00000000000172
230.00000000000264
1500.799999999993
-60.00000000000172
230.00000000000264
19071.500000000888
89.9999999999957
1099.9667700483296
19038.54834811595
90.00000000000688
0
19071.500000000888
-89.99999999999777
1099.9667700483296
19038.54834811595
-89.99999999999686
0
19348.64834811502
90.000000000007
0
19348.64834811502
-89.99999999999683
0
19381.599999999962
-89.99999999999774
1099.9667700483296
19381.599999999962
89.99999999999582
1099.9667700483296
30
1
12
0
1
45
48
49
47
2
3
4
5
6
7
1
4
8
9
10
11
1
20
12
46
50
51
44
13
14
15
16
17
18
19
20
21
22
23
24
25
26
27
1
10
0
18
17
28
29
30
31
14
13
1
1
10
2
12
27
32
33
34
35
24
23
3
1
4
15
36
37
16
1
4
16
37
28
17
1
4
11
30
29
8
1
4
25
38
39
26
1
6
32
39
38
35
40
41
1
4
35
38
25
24
1
4
33
42
43
34
1
6
9
28
37
36
31
10
1
4
29
28
9
8
1
4
40
43
42
41
1
4
35
34
43
40
1
4
31
30
11
10
1
4
33
32
41
42
1
4
14
31
36
15
1
4
32
27
26
39
1
4
1
13
44
45
1
4
46
12
2
47
1
4
0
7
19
18
1
4
4
3
23
22
1
4
6
20
19
7
1
4
4
22
21
5
1
4
6
5
21
20
1
4
45
44
51
48
1
4
49
50
46
47
1
4
48
51
50
49
30
0
0
-1
0
0
1
0
-59.99999999999828
0
0
1
-1099.9667700483296
-4.4023157982785573e-16
1
1.0175747102230706e-14
-149.9999999999968
8.580233203380507e-17
-1
-8.273375914050657e-16
-149.9999999999968
0
1
-4.2028515391866094e-14
-199.99999999996382
-0.707106781186521
0.707106781186574
-1.3235277019092831e-14
743.0278056707953
2.7604281344782692e-17
0.707106781186561
0.7071067811865341
-205.06096654409748
-9.249668749539756e-17
-1
-1.8577822021042274e-14
-199.99999999998602
-9.277969407223001e-18
-0.2747211278973777
-0.9615239476408233
733.5054114859992
-0.7071067811865643
-0.7071067811865306
1.0216950675415326e-14
743.0278056708345
0
-0.7071067811865579
0.7071067811865371
-205.0609665441001
-3.2554278621834883e-18
0.27472112789737807
-0.9615239476408232
733.505411486
0.2873478855663502
0.9578262852211499
0
-488.72128377124375
0
-1
0
-60.00000000000172
0.2873478855663502
-0.9578262852211499
0
-488.7212837712471
-0.28734788556634716
0.957826285221151
0
5086.287452832801
-0.2873478855663494
-0.9578262852211502
1.231595562854661e-15
5086.287452832837
0.707106781186619
0.7071067811864761
6.895671724695102e-14
-12975.975120199437
0.707106781186676
-0.7071067811864189
5.298870691484333e-14
-12975.975120200454
0.9995515922938975
0
-0.02994351921090995
-19030.01131632365
0.9995515922938975
0
-0.02994351921090995
-19030.01131632365
-0.9995515922938975
-9.262005622439736e-19
0.029943519210910506
329.98814365877774
-0.9995515922938975
-9.262005622439736e-19
0.029943519210910506
329.98814365877774
-4.4023157982785573e-16
1
1.0175747102230706e-14
-89.9999999999985
8.580233203380507e-17
-1
-8.273375914050657e-16
-89.9999999999985
-0.9995515922938976
-6.843595352506589e-17
0.02994351921091051
19.991031845877952
-4.4023157982785573e-16
1
1.0175747102230706e-14
-89.9999999999985
8.580233203380507e-17
-1
-8.273375914050657e-16
-89.9999999999985
0.9995515922938975
0
-0.029943519210911176
-19339.97226509306
0
30
-1
"bottom"
-1
0
-1
"sweepface_1_0_4"
-1
0
-1
"bottom-1"
-1
0
-1
"sweepface_1_0_4-1"
-1
0
-1
"sweepface_1_0_4-2"
-1
0
-1
"sweepface_1_0_4-3"
-1
0
-1
"sweepface_1_0_4-4"
-1
0
-1
"top-4"
-1
0
-1
"sweepface_1_0_4-9"
-1
0
-1
"top-5"
-1
0
-1
"sweepface_1_0_4-12"
-1
0
-1
"top-6"
-1
0
-1
"top-7"
-1
0
-1
"sweepface_1_0_4-13"
-1
0
-1
"sweepface_1_0_4-14"
-1
0
-1
"sweepface_1_0_4-15"
-1
0
-1
"sweepface_1_0_4-20"
-1
0
-1
"sweepface_1_0_4-21"
-1
0
-1
"sweepface_1_0_4-22"
-1
0
-1
"sweepface_1_0_4-24"
-1
0
-1
"bottom-6"
-1
0
-1
"bottom-6"
-1
0
-1
"bottom-7"
-1
0
-1
"bottom-7"
-1
0
-1
"sweepface_1_0_4-25"
-1
0
-1
"sweepface_1_0_4-26"
-1
0
-1
"bottom-10"
-1
0
-1
"sweepface_1_0_4-27"
-1
0
-1
"sweepface_1_0_4-28"
-1
0
-1
"bottom-13"
-1
0
"1He4k7Ai10fQ5es$GGRpSm"
1
"1KtR1mlXr6AwkVI4_A4xTi.1C_czvAd9CRQKoIYDuIqZ3"
29
1
0
0.5061454830783556

#10176
1509
"12zE1j5_13KgvWadRCii$F"
"DS210M"
""
0
""
0
"0"
0
"element3d_bip"
""
"i:\\projects\\2026\\26-026\\02 precast\\drawings\\standard-built-in-parts\\DS210M.smd"
""
5
1
0
0
110
0
1
0
0
0
0
1
0
1
0
0
0
1
0
0

#10176
1511
"2AZs5ect92wwzWgf_3tyqf"
"DS210M"
""
0
""
0
"0"
0
"element3d_bip"
""
"i:\\projects\\2026\\26-026\\02 precast\\drawings\\standard-built-in-parts\\DS210M.smd"
""
5
1
0
0
19218.64834811502
0
1
0
5.087485988042317e-12
0
0
1
0
1
0
0
0
1
0
0

#10071
1512
"1v1wQwf4f7mBin6Jk$htLT"
"EWS Erddruckwand m. D\xe4mmung+Vosatz(3-schichtig mit Spornbew) (49)"
""
0
""
0
"0"
0
""
196
0
1
0
3
0
1
1
0
1
5
1
0
0
661.5961051753993
0
1
0
-30.000000000014097
0
0
1
99.96677004832304
1
0
8
-318.5082740248363
180
-99.96677004832304
-18.508274024836282
180
-99.96677004832304
-18.508274024836282
-119.99999999998545
-99.96677004832304
-318.5082740248363
-119.99999999998545
-99.96677004832304
-318.5082740248363
180
1000.0000000000066
-318.5082740248363
-119.99999999998545
1000.0000000000066
-18.508274024836282
-119.99999999998545
1000.0000000000066
-18.508274024836282
180
1000.0000000000066
6
1
4
0
1
2
3
1
4
4
5
6
7
1
4
4
7
1
0
1
4
7
6
2
1
1
4
6
5
3
2
1
4
5
4
0
3
6
0
0
-1
-99.96677004832304
0
0
1
-1000.0000000000066
0
1
0
-180
1
0
0
18.508274024836282
0
-1
0
-119.99999999998545
-1
0
0
-318.5082740248363
0
6
-1
"top"
-1
0
-1
"bottom"
-1
0
-1
"sweepface_1_0_1"
-1
0
-1
"sweepface_1_0_2"
-1
0
-1
"sweepface_1_0_3"
-1
0
-1
"sweepface_1_0_4"
-1
0
"3xj0yj7N56Uh5hQLHU8f0_"
1
"1v1wQwf4f7mBin6Jk$htLT.0"
-11
1
0
0.5061454830783556

#10071
1513
"0I$sUKGYX1hePiS5YK1Ueq"
"EWS Erddruckwand m. D\xe4mmung+Vosatz(3-schichtig mit Spornbew) (48)"
""
0
""
0
"0"
0
""
196
0
1
0
3
0
1
1
0
1
5
-1
0
0
23965.668549109712
0
-1
0
149.99999999986403
0
0
1
99.96677004833009
1
0
8
23322.58071795915
-1.2164491636212915e-10
-99.96677004833009
22784.868549109742
-1.2164491636212915e-10
-99.96677004833009
22784.868549109742
299.9999999999229
-99.96677004833009
23322.58071795915
299.9999999999229
-99.96677004833009
23322.58071795915
-1.2164491636212915e-10
999.9999999999995
23322.58071795915
299.9999999999229
999.9999999999995
22784.868549109742
299.9999999999229
999.9999999999995
22784.868549109742
-1.2164491636212915e-10
999.9999999999995
6
1
4
0
1
2
3
1
4
4
5
6
7
1
4
4
7
1
0
1
4
7
6
2
1
1
4
6
5
3
2
1
4
5
4
0
3
6
0
0
-1
-99.96677004833009
0
0
1
-999.9999999999995
0
-1
0
-1.2164491636212915e-10
-1
0
0
22784.868549109742
0
1
0
-299.9999999999229
1
0
0
-23322.58071795915
0
6
-1
"top"
-1
0
-1
"bottom"
-1
0
-1
"sweepface_1_0_1"
-1
0
-1
"sweepface_1_0_2"
-1
0
-1
"sweepface_1_0_3"
-1
0
-1
"sweepface_1_0_4"
-1
0
"37jRZ0CNj8vQYxCrfUbKn1"
1
"0I$sUKGYX1hePiS5YK1Ueq.0"
-11
1
0
0.5061454830783556

#10159
1514
"0VK3edLjnCaR8tum1n2EMV"
"Cube-Bewehrung (38)"
"B500B \xd88"
0
""
0
"0"
0
0
1
"1EvkbztQz2oR7LwfSJNgqD"
10169
10157
4
1
"1v1wQwf4f7mBin6Jk$htLT"
1
1
1
0
5
0
"top"
0
0
"sweepface_1_0_3"
0
0
"sweepface_1_0_4"
0
0
"sweepface_1_0_1"
0
0
"bottom"
0
0
5
0
0
0
0
0
0
1
0
0
0
2
0
0
0
3
0
0
0
4
0
0
0
0
1
8
4
2
2
140
1
35
2
1
35
2
40
2
3
35
2
40
2
3
35
2
140
3
0
1
10306
400
0
4
0
0
0
4
0
0
1
10306
400
1
0
0
0
0
0
0
1
4
0
3
4
0
1
0
2
0
3
0
0
1
0
2
0
0
0
0
10193
100
200
2
200
5
1
4
0
2
0
0
0
100
3
0
0
179.53774217830846
0
1
1
0
0
0

#10071
1515
"0bGB_wKH12$Rlrb4Cp1FmK"
"EWS Erddruckwand m. D\xe4mmung+Vosatz(3-schichtig mit Spornbew) (47)"
""
0
""
0
"0"
0
""
196
0
1
0
3
0
1
1
0
1
5
1
0
0
351.4599259097756
0
1
0
-90.00000000001268
0
0
1
-50.000000000006594
1
0
8
-318.5082740248363
180
50.000000000006594
-8.372094759212587
180
50.000000000006594
-8.372094759212587
-0
50.000000000006594
-318.5082740248363
0
50.000000000006594
-318.5082740248363
180
1149.9667700483362
-318.5082740248363
-0
1149.9667700483362
-8.372094759212587
0
1149.9667700483362
-8.372094759212587
180
1149.9667700483362
6
1
4
0
1
2
3
1
4
4
5
6
7
1
4
4
7
1
0
1
4
7
6
2
1
1
4
6
5
3
2
1
4
5
4
0
3
6
0
0
-1
50.000000000006594
0
0
1
-1149.9667700483362
0
1
0
-180
1
0
0
8.372094759212587
0
-1
0
-0
-1
0
0
-318.5082740248363
0
6
-1
"top"
-1
0
-1
"bottom"
-1
0
-1
"sweepface_1_0_1"
-1
0
-1
"sweepface_1_0_2"
-1
0
-1
"sweepface_1_0_3"
-1
0
-1
"sweepface_1_0_4"
-1
0
"2UGjGxBWj8Ee2S$P5C9t8N"
1
"0bGB_wKH12$Rlrb4Cp1FmK.0"
-11
1
0
0.5061454830783556

#10159
1516
"2QH3A9NPPDWAXNe1$fnAvo"
"Cube-Bewehrung (351)"
"B500B \xd88"
0
""
0
"0"
0
0
1
"1Zbeq2aTz7WOrNNWzlTOcn"
10169
10157
4
1
"1v1wQwf4f7mBin6Jk$htLT"
1
1
1
0
6
0
"sweepface_1_0_3"
0
0
"bottom"
0
0
"sweepface_1_0_4"
0
0
"top"
0
0
"sweepface_1_0_2"
0
0
"sweepface_1_0_1"
0
0
6
0
0
0
0
0
0
1
0
0
0
2
0
0
0
3
0
0
0
4
0
0
0
5
0
0
0
0
1
8
10
2
1
30
0
25
2
1
30
5
25
2
5
25
3
25
2
3
25
0
25
2
0
25
1
895
2
1
895
5
25
2
3
25
5
25
2
3
25
0
25
2
0
25
1
30
2
1
30
5
25
11
2
4
8
110
1.5707963267948966
0
1
4
0
0
4
0
0
0
4
0
0
0
4
0
0
0
4
0
0
0
4
0
0
0
4
0
0
0
4
0
0
0
4
0
0
0
0
0
2
4
8
110
1.5707963267948966
0
1
4
0
0
0
0
1
2
0
3
1
0
0
0
2
0
3
1
0
0
0
4
0
0
0
0
10193
50
60
2
50
5
0
0
0
1
1
0
0
0

#10159
1517
"0RCyvT2oj6rgkwqpfiwZMx"
"Cube-Bewehrung (40)"
"B500B \xd812"
0
""
0
"0"
0
0
1
"2j_boiWqz3AwN8hwzjU0gl"
10169
10157
4
1
"1v1wQwf4f7mBin6Jk$htLT"
1
1
1
0
6
0
"bottom"
0
0
"sweepface_1_0_1"
0
0
"sweepface_1_0_2"
0
0
"sweepface_1_0_4"
0
0
"top"
0
0
"sweepface_1_0_3"
0
0
6
0
0
0
0
0
0
1
0
0
0
2
0
0
0
3
0
0
0
4
0
0
0
5
0
0
0
0
1
12
4
2
0
50
2
40
2
0
50
3
50
2
3
50
4
50
2
4
50
2
40
3
0
1
10306
1000
0
4
0
0
0
4
0
0
1
10306
600
1
0
0
0
0
0
0
1
1
0
3
0
0
1
0
3
0
3
0
0
3
0
5
0
0
0
0
10193
60
60
1
179.99999999998545
2
0
0
0
0
1
0
0
0

#10159
1519
"3cP0ZtlJnCleEPYeP52hx8"
"Cube-Bewehrung (40)"
"B500B \xd812"
0
""
0
"0"
0
0
1
"2j_boiWqz3AwN8hwzjU0gl"
10169
10157
4
1
"0bGB_wKH12$Rlrb4Cp1FmK"
1
1
1
0
6
0
"bottom"
0
0
"sweepface_1_0_1"
0
0
"sweepface_1_0_2"
0
0
"sweepface_1_0_4"
0
0
"top"
0
0
"sweepface_1_0_3"
0
0
6
0
0
0
0
0
0
1
0
0
0
2
0
0
0
3
0
0
0
4
0
0
0
5
0
0
0
0
1
12
4
2
0
50
2
40
2
0
50
3
50
2
3
50
4
50
2
4
50
2
40
3
0
1
10306
1000
0
4
0
0
0
4
0
0
1
10306
600
1
0
0
0
0
0
0
1
1
0
3
0
0
1
0
3
0
3
0
0
3
0
5
0
0
0
0
10193
55
55
1
70
2
0
0
0
0
1
0
0
0

#10071
1520
"1vyeqaeEr6gPk9RFSV7QQB"
"EWS Erddruckwand m. D\xe4mmung+Vosatz(3-schichtig mit Spornbew) (92)"
""
0
""
0
"0"
0
""
196
0
1
0
3
0
1
1
0
1
5
1
0
0
-1035.7501901952364
0
1
0
-150.00000000005866
0
0
1
0
1
0
16
19166.550190195216
300
0
19166.550190195216
0
0
2266.550190195241
0
0
2266.550190195241
300
0
2266.550190195241
300
139.99548672547013
19166.550190195216
300
139.9954867254711
2266.550190195241
209.99999999999747
229.99548672547274
2266.550190195241
0
139.99548672547274
2266.550190195241
89.99999999999747
229.9954867254703
19166.550190195216
0
139.9954867254737
19166.550190195216
89.99999999999747
229.99548672547127
19166.550190195216
209.99999999999747
229.9954867254737
2266.550190195241
89.99999999999747
1099.9667700483296
19166.550190195216
89.99999999999747
1099.9667700483296
19166.550190195216
209.99999999999747
1099.9667700483296
2266.550190195241
209.99999999999747
1099.9667700483296
10
1
4
0
1
2
3
1
4
0
3
4
5
1
8
2
7
8
12
15
6
4
3
1
4
2
1
9
7
1
8
0
5
11
14
13
10
9
1
1
4
10
8
7
9
1
4
5
4
6
11
1
4
12
13
14
15
1
4
8
10
13
12
1
4
11
6
15
14
10
-0
-0
-1
0
0
1
0
-300
-1
0
0
2266.550190195241
0
-1
0
-0
1
0
0
-19166.550190195216
-4.110219400854478e-17
-0.7071067811865478
0.7071067811865471
-98.99175799909293
-4.082770688084024e-17
0.7071067811865477
0.7071067811865472
-311.12379235505546
0
0
1
-1099.9667700483296
0
-1
0
89.99999999999747
0
1
0
-209.99999999999747
0
10
-1
"bottom"
-1
0
-1
"sweepface_1_0_1"
-1
0
-1
"sweepface_1_0_2"
-1
0
-1
"sweepface_1_0_3"
-1
0
-1
"sweepface_1_0_4"
-1
0
-1
"bottom-1"
-1
0
-1
"bottom-2"
-1
0
-1
"top-1"
-1
0
-1
"sweepface_1_0_1-1"
-1
0
-1
"sweepface_1_0_3-1"
-1
0
"1Xw1GsJQP1o9Q6x5Yb5Z83"
1
"1vyeqaeEr6gPk9RFSV7QQB.0"
32
1
0
0.5061454830783556

#10159
1521
"3aOVqSvD9BxAXAjSLCmKFG"
"Cube-Bewehrung (324)"
"B500B \xd88"
0
""
0
"0"
0
0
1
"1SmNlMPUbE4OsUeURjt1jM"
10169
10157
4
1
"1vyeqaeEr6gPk9RFSV7QQB"
1
1
1
0
10
0
"sweepface_1_0_2"
0
0
"top-1"
0
0
"sweepface_1_0_3-1"
0
0
"bottom-1"
0
0
"sweepface_1_0_3"
0
0
"bottom"
0
0
"sweepface_1_0_1-1"
0
0
"sweepface_1_0_1"
0
0
"bottom-2"
0
0
"sweepface_1_0_4"
0
0
10
0
0
0
0
0
0
1
0
0
0
2
0
0
0
3
0
0
0
4
0
0
0
5
0
0
0
6
0
0
0
7
0
0
0
8
0
0
0
9
0
0
0
0
1
8
12
2
1
35
2
20
2
2
20
3
25
2
3
25
4
25
2
4
25
5
25
2
5
25
2
20
2
2
20
1
35
2
1
35
6
20
2
6
20
5
25
2
5
25
7
25
2
7
25
8
25
2
8
25
6
20
2
6
20
1
35
11
0
1
10306
110
0
4
0
0
0
4
0
0
0
4
0
0
0
4
0
0
0
4
0
0
0
4
0
0
0
4
0
0
0
4
0
0
0
4
0
0
0
4
0
0
1
10306
110
1
0
0
0
0
0
0
1
0
0
3
5
0
0
0
4
0
3
5
0
4
0
9
0
0
0
0
10194
30
30
5
0
100
14
0
0
0
1
1
1300
150
1
8
0
150
14
0
0
0
0
1
1850
250
1
8
0
250
40
0
0
0
0
0
250
1
8
0
150
14
0
0
0
0
1
1850
150
1
8
0
100
14
0
0
0
1
1
1300
0
1
8
0
0
0
0

#10159
1522
"0ImlEXGlzCjOtt36qI1Ozg"
"Cube-Bewehrung (385)"
"B500B \xd812"
0
""
0
"0"
0
0
1
"0k_oxYHcjDoOy5lRmuxNy7"
10169
10157
4
1
"0bGB_wKH12$Rlrb4Cp1FmK"
1
1
1
0
5
0
"top"
0
0
"sweepface_1_0_3"
0
0
"sweepface_1_0_4"
0
0
"sweepface_1_0_1"
0
0
"bottom"
0
0
5
0
0
0
0
0
0
1
0
0
0
2
0
0
0
3
0
0
0
4
0
0
0
0
1
12
4
2
1
25
2
125
2
1
25
2
25
2
2
25
3
25
2
3
25
2
125
3
0
1
10306
750
0
4
0
0
0
4
0
0
1
10306
750
1
4
0
0
0
0
0
1
0
0
3
0
0
1
0
2
0
3
1
0
2
0
4
0
0
0
0
10193
60
-30
2
60
2
1
1
1
0
0
-10.690058238411183
0
0
1
1
0
0
0

#10159
1523
"2goTwHxOb1FR3Q$C$r7q2c"
"Cube-Bewehrung (38)"
"B500B \xd88"
0
""
0
"0"
0
0
1
"1EvkbztQz2oR7LwfSJNgqD"
10169
10157
4
1
"0bGB_wKH12$Rlrb4Cp1FmK"
1
1
1
0
5
0
"top"
0
0
"sweepface_1_0_3"
0
0
"sweepface_1_0_4"
0
0
"sweepface_1_0_1"
0
0
"bottom"
0
0
5
0
0
0
0
0
0
1
0
0
0
2
0
0
0
3
0
0
0
4
0
0
0
0
1
8
4
2
2
125
1
25
2
1
25
2
25
2
3
25
2
25
2
3
25
2
125
3
0
1
10306
750
0
4
0
0
0
4
0
0
1
10306
750
1
0
0
0
0
0
0
1
4
0
3
4
0
1
0
2
0
3
0
0
1
0
2
0
0
0
0
10193
100
150
2
200
5
2
3
1
0
0
11.709164652920052
4
0
2
0
0
0
100
3
0
0
193.57403918036363
0
1
1
0
0
0

#10159
1524
"1AWMfrGa57Y99PNf_t$WU8"
"Cube-Bewehrung (352)"
"B500B \xd88"
0
""
0
"0"
0
0
1
"1Zbeq2aTz7WOrNNWzlTOcn"
10169
10157
4
1
"0bGB_wKH12$Rlrb4Cp1FmK"
1
1
1
0
6
0
"sweepface_1_0_3"
0
0
"bottom"
0
0
"sweepface_1_0_4"
0
0
"top"
0
0
"sweepface_1_0_2"
0
0
"sweepface_1_0_1"
0
0
6
0
0
0
0
0
0
1
0
0
0
2
0
0
0
3
0
0
0
4
0
0
0
5
0
0
0
0
1
8
10
2
1
30
0
15
2
1
30
5
15
2
5
15
3
25
2
3
25
0
15
2
0
15
1
895
2
1
895
5
15
2
3
25
5
15
2
3
25
0
15
2
0
15
1
30
2
1
30
5
15
11
2
4
8
110
1.5707963267948966
0
1
4
0
0
4
0
0
0
4
0
0
0
4
0
0
0
4
0
0
0
4
0
0
0
4
0
0
0
4
0
0
0
4
0
0
0
0
0
2
4
8
110
1.5707963267948966
0
1
4
0
0
0
0
1
2
0
3
1
0
0
0
2
0
3
1
0
0
0
4
0
0
0
0
10193
40
50
1
55.034044816405924
5
0
0
0
0
1
0
0
0

#10159
1526
"0F51x0gR190wRAykSyNPlX"
"Cube-Bewehrung (423)"
"SpSt 1660/1860 \xd812.5"
0
""
0
"0"
0
0
0
10169
10157
4
1
"1KtR1mlXr6AwkVI4_A4xTi"
1
1
2
"1C_czvAd9CRQKoIYDuIqZ3"
5
0
"bottom"
0
0
"sweepface_1_0_4-26"
0
0
"bottom-10"
0
0
"bottom-13"
0
0
"sweepface_1_0_4-25"
0
0
5
0
0
0
0
0
0
1
0
0
0
2
0
0
0
3
0
0
0
4
0
0
0
0
5
12.5
2
2
0
38.75
2
0
2
0
38.75
3
0
1
0
0
4
0
0
0
0
0
1
1
0
3
0
0
1
0
2
0
3
0
0
4
0
2
0
0
0
0
10193
-15
-15
1
41.999999999999396
6
4
1
1
0
3.517737165386374e-17
7.000000000000604
2
1
0
6.84666545006377e-17
1.000000000001208
3
1
0
-6.846665450063478e-17
-1.0000000000011653
4
1
0
-3.5177371653861277e-17
-7.000000000000568
0
0
0
1
0
0
0

#10159
1527
"3HUSM5eiX1av3_ggPxm3ri"
"Cube-Bewehrung (424)"
"SpSt 1660/1860 \xd812.5"
0
""
0
"0"
0
0
1
"0F51x0gR190wRAykSyNPlX"
10169
10157
4
1
"1KtR1mlXr6AwkVI4_A4xTi"
1
1
2
"1C_czvAd9CRQKoIYDuIqZ3"
5
0
"bottom-10"
0
0
"sweepface_1_0_4-25"
0
0
"bottom"
0
0
"sweepface_1_0_4-26"
0
0
"bottom-13"
0
0
5
0
0
0
0
0
0
1
0
0
0
2
0
0
0
3
0
0
0
4
0
0
0
0
5
12.5
2
2
2
78.75
0
0
2
2
78.75
4
0
1
0
0
4
0
0
0
0
0
1
3
0
3
2
0
3
0
0
0
3
2
0
1
0
0
0
0
0
0
10193
-15
-15
1
41.999999999999396
6
4
1
1
0
3.517737165386374e-17
7.000000000000604
2
1
0
6.84666545006377e-17
1.000000000001208
3
1
0
-6.846665450063478e-17
-1.0000000000011653
4
1
0
-3.5177371653861277e-17
-7.000000000000568
0
0
0
1
0
0
0

#10159
1528
"1VsVGWjOb4vQIE8mUROyfx"
"Cube-Bewehrung (425)"
"SpSt 1660/1860 \xd812.5"
0
""
0
"0"
0
0
1
"0F51x0gR190wRAykSyNPlX"
10169
10157
4
1
"1KtR1mlXr6AwkVI4_A4xTi"
1
1
2
"1C_czvAd9CRQKoIYDuIqZ3"
5
0
"bottom-10"
0
0
"sweepface_1_0_4-25"
0
0
"bottom"
0
0
"sweepface_1_0_4-26"
0
0
"bottom-13"
0
0
5
0
0
0
0
0
0
1
0
0
0
2
0
0
0
3
0
0
0
4
0
0
0
0
5
12.5
2
2
2
118.75
0
0
2
2
118.75
4
0
1
0
0
4
0
0
0
0
0
1
3
0
3
2
0
3
0
0
0
3
2
0
1
0
0
0
0
0
0
10193
-15
-15
1
41.999999999999396
6
4
1
1
0
3.517737165386374e-17
7.000000000000604
2
1
0
6.84666545006377e-17
1.000000000001208
3
1
0
-6.846665450063478e-17
-1.0000000000011653
4
1
0
-3.5177371653861277e-17
-7.000000000000568
0
0
0
1
0
0
0

#10159
1529
"3Yw$UDWdf4aRKALtPOKK6E"
"Cube-Bewehrung (426)"
"SpSt 1660/1860 \xd812.5"
0
""
0
"0"
0
0
1
"0F51x0gR190wRAykSyNPlX"
10169
10157
4
1
"1KtR1mlXr6AwkVI4_A4xTi"
1
1
2
"1C_czvAd9CRQKoIYDuIqZ3"
5
0
"bottom-10"
0
0
"sweepface_1_0_4-25"
0
0
"bottom"
0
0
"sweepface_1_0_4-26"
0
0
"bottom-13"
0
0
5
0
0
0
0
0
0
1
0
0
0
2
0
0
0
3
0
0
0
4
0
0
0
0
5
12.5
2
2
2
158.75
0
0
2
2
158.75
4
0
1
0
0
4
0
0
0
0
0
1
3
0
3
2
0
3
0
0
0
3
2
0
1
0
0
0
0
0
0
10193
10
10
2
42
5
5
0
0
1
1
0
2.465190328815662e-31
-18
2
1
0
0
-4
3
1
0
2.0728805230875504e-16
10
4
0
0
0
1
1
0
0
0

#10159
1531
"0yF7d_O4b8CvsOYxNT9lUI"
"Cube-Bewehrung (428)"
"B500B \xd812"
0
""
0
"0"
0
0
1
"0yF7d_O4b8CvsOYxNT9lUI"
10169
10157
4
1
"1KtR1mlXr6AwkVI4_A4xTi"
1
1
2
"1C_czvAd9CRQKoIYDuIqZ3"
5
0
"bottom-1"
0
0
"bottom-7"
4
0
"bottom"
0
"bottom-1"
0
"sweepface_1_0_4-2"
0
"sweepface_1_0_4-26"
0
"bottom-6"
4
0
"bottom"
0
"bottom-1"
0
"sweepface_1_0_4-2"
0
"sweepface_1_0_4-28"
0
"sweepface_1_0_4-1"
0
0
"sweepface_1_0_4-2"
0
0
5
0
0
0
0
0
0
1
0
0
0
2
0
0
0
3
0
0
0
4
0
0
0
0
1
12
2
2
0
40
1
30
2
0
40
2
0
1
0
1
10306
18640
1
4
0
0
0
0
0
1
4
0
3
0
0
4
0
1
0
3
0
0
1
0
3
0
0
0
0
10193
-5
-5
1
309.9999999999834
2
0
0
0
0
1
1
1
0
0
1
1
14000
18640
2
14000
5300
2
660
0
0
0
0
0
0

#10159
1532
"2EMmxfmhnAkQHdzdZWna0t"
"Cube-Bewehrung (429)"
"B500B \xd812"
0
""
0
"0"
0
0
1
"0yF7d_O4b8CvsOYxNT9lUI"
10169
10157
4
1
"1KtR1mlXr6AwkVI4_A4xTi"
1
1
2
"1C_czvAd9CRQKoIYDuIqZ3"
5
0
"bottom-1"
0
0
"sweepface_1_0_4-1"
0
0
"bottom-7"
4
0
"bottom"
0
"bottom-1"
0
"sweepface_1_0_4-2"
0
"sweepface_1_0_4-26"
0
"sweepface_1_0_4-2"
0
0
"bottom-6"
4
0
"bottom"
0
"bottom-1"
0
"sweepface_1_0_4-2"
0
"sweepface_1_0_4-28"
0
5
0
0
0
0
0
0
1
0
0
0
2
0
0
0
3
0
0
0
4
0
0
0
0
1
12
2
2
0
250
2
30
2
0
250
4
30
1
0
1
10306
18640
1
4
0
0
0
0
0
1
3
0
3
0
0
3
0
2
0
3
0
0
2
0
1
0
0
0
0
10193
-5
-5
1
309.9999999999834
2
0
0
0
0
1
1
1
0
0
1
1
14000
18640
2
14000
5300
2
660
0
0
0
0
0
0

#10176
1533
"3LkHvoMmvB5OHwip66tS15"
"TKS10130G7-75"
""
0
""
0
"0"
0
"element3d_bip"
""
"I:\\Projects\\2026\\26-026\\02 Precast\\Drawings\\standard-built-in-parts\\TKS10130G7-75.smd"
""
5
-1
-1.2246467991473532e-16
0
2932.9516518849396
1.2246467991473532e-16
-1
0
-1.2676082405960187e-11
0
0
1
1099.9667700483296
1
0
0
0
1
0
0

#10176
1534
"0uktgWRN91FhW9uJizLZyY"
"TKS10130G7-75"
""
0
""
0
"0"
0
"element3d_bip"
""
"I:\\Projects\\2026\\26-026\\02 Precast\\Drawings\\standard-built-in-parts\\TKS10130G7-75.smd"
""
5
1
0
0
16461.599999999962
0
1
0
-9.592326932761353e-13
0
0
1
1099.9667700483296
1
0
0
0
1
0
0

#10176
1535
"3Dtb1LnXf6oBF_xV9qRAZY"
"HUA3-270"
""
1
20053
0
1
1
2
0
"Ausf\xfchrung"
""
""
"FV"
1
"FV"
""
0
"0"
0
"element3d_bip"
""
"i:\\projects\\2026\\26-026\\02 precast\\drawings\\standard-built-in-parts\\HUA3-270.smd"
""
5
1
0
0
82.95165188493934
0
1
0
-1.2676082405960187e-11
0
0
1
1099.9667700483296
1
0
0
0
1
0
0

#10176
1536
"3MxNY30gj0v9kieDMi17Lg"
"HUA32"
""
1
20053
0
1
1
2
0
"Ausf\xfchrung"
""
""
"FV"
1
"FV"
""
0
"0"
0
"element3d_bip"
""
"i:\\projects\\2026\\26-026\\02 precast\\drawings\\standard-built-in-parts\\HUA32.smd"
""
5
1
0
0
3052.9516518849396
0
1
0
-1.2676082405960187e-11
0
0
1
1099.9667700483296
1
0
0
0
1
0
0

#10176
1537
"1jLy0QHkv2Q8$kgJzci2Xj"
"HUA32"
""
1
20053
0
1
1
2
0
"Ausf\xfchrung"
""
""
"FV"
1
"FV"
""
0
"0"
0
"element3d_bip"
""
"i:\\projects\\2026\\26-026\\02 precast\\drawings\\standard-built-in-parts\\HUA32.smd"
""
5
1
0
0
6072.95165188494
0
1
0
-1.2676082405960187e-11
0
0
1
1099.9667700483296
1
0
0
0
1
0
0

#10176
1538
"2EcO9JFFj8HQxwQOp3ztaE"
"HUA32"
""
1
20053
0
1
1
2
0
"Ausf\xfchrung"
""
""
"FV"
1
"FV"
""
0
"0"
0
"element3d_bip"
""
"i:\\projects\\2026\\26-026\\02 precast\\drawings\\standard-built-in-parts\\HUA32.smd"
""
5
1
0
0
9092.95165188494
0
1
0
-1.2676082405960187e-11
0
0
1
1099.9667700483296
1
0
0
0
1
0
0

#10176
1539
"12Y402NGn16gHtodFjA5oP"
"HUA32"
""
1
20053
0
1
1
2
0
"Ausf\xfchrung"
""
""
"FV"
1
"FV"
""
0
"0"
0
"element3d_bip"
""
"i:\\projects\\2026\\26-026\\02 precast\\drawings\\standard-built-in-parts\\HUA32.smd"
""
5
1
0
0
12112.95165188494
0
1
0
-1.2676082405960187e-11
0
0
1
1099.9667700483296
1
0
0
0
1
0
0

#10176
1540
"3TECW7Z5z2lh3QmfVnHVej"
"HUA3-270"
""
1
20053
0
1
1
2
0
"Ausf\xfchrung"
""
""
"FV"
1
"FV"
""
0
"0"
0
"element3d_bip"
""
"i:\\projects\\2026\\26-026\\02 precast\\drawings\\standard-built-in-parts\\HUA3-270.smd"
""
5
-1
-1.2246467991473532e-16
0
19311.599999999966
1.2246467991473532e-16
-1
0
-9.490740457796478e-13
0
0
1
1099.9667700483296
1
0
0
0
1
0
0

#10176
1541
"2E3zkYVzD7Xv3m4CjkXdcH"
"HUA3-120"
""
1
20053
0
1
1
2
0
"Ausf\xfchrung"
""
""
"FV"
1
"FV"
""
0
"0"
0
"element3d_bip"
""
"i:\\projects\\2026\\26-026\\02 precast\\drawings\\standard-built-in-parts\\HUA3-120.smd"
""
5
1
0
0
15132.95165188494
0
1
0
-1.2676082405960187e-11
0
0
1
1099.9667700483296
1
0
0
0
1
0
0

#10159
1542
"096WrXfDv04hZ7aG_Ui6wf"
"Cube-Bewehrung (38)"
"B500B \xd88"
0
""
0
"0"
0
0
1
"1EvkbztQz2oR7LwfSJNgqD"
10169
10157
4
1
"0qn4KzqEP9PvWcycKgkCmk"
1
1
1
0
5
0
"top"
0
0
"sweepface_1_0_3"
0
0
"sweepface_1_0_4"
0
0
"sweepface_1_0_1"
0
0
"bottom"
0
0
5
0
0
0
0
0
0
1
0
0
0
2
0
0
0
3
0
0
0
4
0
0
0
0
1
8
4
2
2
125
1
25
2
1
25
2
25
2
3
25
2
25
2
3
25
2
125
3
0
1
10306
750
0
4
0
0
0
4
0
0
1
10306
750
1
0
0
0
0
0
0
1
4
0
3
4
0
1
0
2
0
3
0
0
1
0
2
0
0
0
0
10193
100
150
2
200
5
2
3
1
0
0
11.709164652920052
4
0
2
0
0
0
100
3
0
0
193.57403918036363
0
1
1
0
0
0

#10159
1543
"3c4DVS01b0gx68C229NgG4"
"Cube-Bewehrung (352)"
"B500B \xd88"
0
""
0
"0"
0
0
1
"1Zbeq2aTz7WOrNNWzlTOcn"
10169
10157
4
1
"0qn4KzqEP9PvWcycKgkCmk"
1
1
1
0
6
0
"sweepface_1_0_3"
0
0
"bottom"
0
0
"sweepface_1_0_4"
0
0
"top"
0
0
"sweepface_1_0_2"
0
0
"sweepface_1_0_1"
0
0
6
0
0
0
0
0
0
1
0
0
0
2
0
0
0
3
0
0
0
4
0
0
0
5
0
0
0
0
1
8
10
2
1
30
0
15
2
1
30
5
15
2
5
15
3
25
2
3
25
0
15
2
0
15
1
895
2
1
895
5
15
2
3
25
5
15
2
3
25
0
15
2
0
15
1
30
2
1
30
5
15
11
2
4
8
110
1.5707963267948966
0
1
4
0
0
4
0
0
0
4
0
0
0
4
0
0
0
4
0
0
0
4
0
0
0
4
0
0
0
4
0
0
0
4
0
0
0
0
0
2
4
8
110
1.5707963267948966
0
1
4
0
0
0
0
1
2
0
3
1
0
0
0
2
0
3
1
0
0
0
4
0
0
0
0
10193
40
50
1
55.034044816406094
5
0
0
0
0
1
0
0
0

#10159
1544
"0gxVVeC95FMv3Nq4VchvVb"
"Cube-Bewehrung (385)"
"B500B \xd812"
0
""
0
"0"
0
0
1
"0k_oxYHcjDoOy5lRmuxNy7"
10169
10157
4
1
"0qn4KzqEP9PvWcycKgkCmk"
1
1
1
0
5
0
"top"
0
0
"sweepface_1_0_3"
0
0
"sweepface_1_0_4"
0
0
"sweepface_1_0_1"
0
0
"bottom"
0
0
5
0
0
0
0
0
0
1
0
0
0
2
0
0
0
3
0
0
0
4
0
0
0
0
1
12
4
2
1
25
2
125
2
1
25
2
25
2
2
25
3
25
2
3
25
2
125
3
0
1
10306
750
0
4
0
0
0
4
0
0
1
10306
750
1
4
0
0
0
0
0
1
0
0
3
0
0
1
0
2
0
3
1
0
2
0
4
0
0
0
0
10193
60
-30
2
60
2
1
1
1
0
0
-10.690058238411183
0
0
1
1
0
0
0

#10159
1545
"1Ywdr5LFX3GebN3npzTbHF"
"Cube-Bewehrung (40)"
"B500B \xd812"
0
""
0
"0"
0
0
1
"2j_boiWqz3AwN8hwzjU0gl"
10169
10157
4
1
"0qn4KzqEP9PvWcycKgkCmk"
1
1
1
0
6
0
"bottom"
0
0
"sweepface_1_0_1"
0
0
"sweepface_1_0_2"
0
0
"sweepface_1_0_4"
0
0
"top"
0
0
"sweepface_1_0_3"
0
0
6
0
0
0
0
0
0
1
0
0
0
2
0
0
0
3
0
0
0
4
0
0
0
5
0
0
0
0
1
12
4
2
0
50
2
40
2
0
50
3
50
2
3
50
4
50
2
4
50
2
40
3
0
1
10306
1000
0
4
0
0
0
4
0
0
1
10306
600
1
0
0
0
0
0
0
1
1
0
3
0
0
1
0
3
0
3
0
0
3
0
5
0
0
0
0
10193
55
55
1
70
2
0
0
0
0
1
0
0
0

#10071
1546
"0qn4KzqEP9PvWcycKgkCmk"
"HB Hebeb\xfchne (1)"
""
0
""
0
"0"
0
""
110
0
1
0
3
0
1
1
0
1
5
-1
-1.2246467991473532e-16
0
19010.140074090184
1.2246467991473532e-16
-1
0
90.0000000000032
0
0
1
-50.000000000006594
1
0
8
-318.5082740248363
180
50.000000000006594
-8.372094759212587
180
50.000000000006594
-8.372094759212587
-0
50.000000000006594
-318.5082740248363
0
50.000000000006594
-318.5082740248363
180
1149.9667700483362
-318.5082740248363
-0
1149.9667700483362
-8.372094759212587
0
1149.9667700483362
-8.372094759212587
180
1149.9667700483362
6
1
4
0
1
2
3
1
4
4
5
6
7
1
4
4
7
1
0
1
4
7
6
2
1
1
4
6
5
3
2
1
4
5
4
0
3
6
0
0
-1
50.000000000006594
0
0
1
-1149.9667700483362
0
1
0
-180
1
0
0
8.372094759212587
0
-1
0
-0
-1
0
0
-318.5082740248363
0
6
-1
"top"
-1
0
-1
"bottom"
-1
0
-1
"sweepface_1_0_1"
-1
0
-1
"sweepface_1_0_2"
-1
0
-1
"sweepface_1_0_3"
-1
0
-1
"sweepface_1_0_4"
-1
0
"2UGjGxBWj8Ee2S$P5C9t8N"
1
"0qn4KzqEP9PvWcycKgkCmk.0"
-11
1
0
0.5061454830783556

#10159
1547
"242RiOvGbEXOSpvQfJMqVX"
"Cube-Bewehrung (38)"
"B500B \xd88"
0
""
0
"0"
0
0
1
"1EvkbztQz2oR7LwfSJNgqD"
10169
10157
4
1
"0Y7Du_UzL6DhYZIMzUBgEd"
1
1
1
0
5
0
"top"
0
0
"sweepface_1_0_3"
0
0
"sweepface_1_0_4"
0
0
"sweepface_1_0_1"
0
0
"bottom"
0
0
5
0
0
0
0
0
0
1
0
0
0
2
0
0
0
3
0
0
0
4
0
0
0
0
1
8
4
2
2
140
1
35
2
1
35
2
40
2
3
35
2
40
2
3
35
2
140
3
0
1
10306
400
0
4
0
0
0
4
0
0
1
10306
400
1
0
0
0
0
0
0
1
4
0
3
4
0
1
0
2
0
3
0
0
1
0
2
0
0
0
0
10193
100
200
2
200
5
1
4
0
2
0
0
0
100
3
0
0
179.53774217830846
0
1
1
0
0
0

#10159
1548
"0XVn9oK6fAFOwlQeqBOUPV"
"Cube-Bewehrung (351)"
"B500B \xd88"
0
""
0
"0"
0
0
1
"1Zbeq2aTz7WOrNNWzlTOcn"
10169
10157
4
1
"0Y7Du_UzL6DhYZIMzUBgEd"
1
1
1
0
6
0
"sweepface_1_0_3"
0
0
"bottom"
0
0
"sweepface_1_0_4"
0
0
"top"
0
0
"sweepface_1_0_2"
0
0
"sweepface_1_0_1"
0
0
6
0
0
0
0
0
0
1
0
0
0
2
0
0
0
3
0
0
0
4
0
0
0
5
0
0
0
0
1
8
10
2
1
30
0
25
2
1
30
5
25
2
5
25
3
25
2
3
25
0
25
2
0
25
1
895
2
1
895
5
25
2
3
25
5
25
2
3
25
0
25
2
0
25
1
30
2
1
30
5
25
11
2
4
8
110
1.5707963267948966
0
1
4
0
0
4
0
0
0
4
0
0
0
4
0
0
0
4
0
0
0
4
0
0
0
4
0
0
0
4
0
0
0
4
0
0
0
0
0
2
4
8
110
1.5707963267948966
0
1
4
0
0
0
0
1
2
0
3
1
0
0
0
2
0
3
1
0
0
0
4
0
0
0
0
10193
50
60
2
50
5
0
0
0
1
1
0
0
0

#10159
1549
"3WB3wGyr91sOE3V8RNsHSb"
"Cube-Bewehrung (40)"
"B500B \xd812"
0
""
0
"0"
0
0
1
"2j_boiWqz3AwN8hwzjU0gl"
10169
10157
4
1
"0Y7Du_UzL6DhYZIMzUBgEd"
1
1
1
0
6
0
"bottom"
0
0
"sweepface_1_0_1"
0
0
"sweepface_1_0_2"
0
0
"sweepface_1_0_4"
0
0
"top"
0
0
"sweepface_1_0_3"
0
0
6
0
0
0
0
0
0
1
0
0
0
2
0
0
0
3
0
0
0
4
0
0
0
5
0
0
0
0
1
12
4
2
0
50
2
40
2
0
50
3
50
2
3
50
4
50
2
4
50
2
40
3
0
1
10306
1000
0
4
0
0
0
4
0
0
1
10306
600
1
0
0
0
0
0
0
1
1
0
3
0
0
1
0
3
0
3
0
0
3
0
5
0
0
0
0
10193
60
60
1
179.99999999998545
2
0
0
0
0
1
0
0
0

#10071
1550
"0Y7Du_UzL6DhYZIMzUBgEd"
"HB Hebeb\xfchne (2)"
""
0
""
0
"0"
0
""
110
0
1
0
3
0
1
1
0
1
5
-1
-1.2246467991473532e-16
0
18700.040074091114
1.2246467991473532e-16
-1
0
30.00000000001975
0
0
1
99.96677004832304
1
0
8
-318.5082740248363
180
-99.96677004832304
-18.508274024836282
180
-99.96677004832304
-18.508274024836282
-119.99999999998545
-99.96677004832304
-318.5082740248363
-119.99999999998545
-99.96677004832304
-318.5082740248363
180
1000.0000000000066
-318.5082740248363
-119.99999999998545
1000.0000000000066
-18.508274024836282
-119.99999999998545
1000.0000000000066
-18.508274024836282
180
1000.0000000000066
6
1
4
0
1
2
3
1
4
4
5
6
7
1
4
4
7
1
0
1
4
7
6
2
1
1
4
6
5
3
2
1
4
5
4
0
3
6
0
0
-1
-99.96677004832304
0
0
1
-1000.0000000000066
0
1
0
-180
1
0
0
18.508274024836282
0
-1
0
-119.99999999998545
-1
0
0
-318.5082740248363
0
6
-1
"top"
-1
0
-1
"bottom"
-1
0
-1
"sweepface_1_0_1"
-1
0
-1
"sweepface_1_0_2"
-1
0
-1
"sweepface_1_0_3"
-1
0
-1
"sweepface_1_0_4"
-1
0
"3xj0yj7N56Uh5hQLHU8f0_"
1
"0Y7Du_UzL6DhYZIMzUBgEd.0"
-11
1
0
0.5061454830783556

#10071
1552
"2sbLwcD0z8KeR9pQQwYh$B"
"HB Hebeb\xfchne (3)"
""
0
""
0
"0"
0
""
110
0
1
0
3
0
1
1
0
1
5
1
1.2246467991473532e-16
0
-4604.0323698432
-1.2246467991473532e-16
1
0
-149.99999999985548
0
0
1
99.96677004833009
1
0
8
23322.58071795915
-1.2164491636212915e-10
-99.96677004833009
22784.868549109742
-1.2164491636212915e-10
-99.96677004833009
22784.868549109742
299.9999999999229
-99.96677004833009
23322.58071795915
299.9999999999229
-99.96677004833009
23322.58071795915
-1.2164491636212915e-10
999.9999999999995
23322.58071795915
299.9999999999229
999.9999999999995
22784.868549109742
299.9999999999229
999.9999999999995
22784.868549109742
-1.2164491636212915e-10
999.9999999999995
6
1
4
0
1
2
3
1
4
4
5
6
7
1
4
4
7
1
0
1
4
7
6
2
1
1
4
6
5
3
2
1
4
5
4
0
3
6
0
0
-1
-99.96677004833009
0
0
1
-999.9999999999995
0
-1
0
-1.2164491636212915e-10
-1
0
0
22784.868549109742
0
1
0
-299.9999999999229
1
0
0
-23322.58071795915
0
6
-1
"top"
-1
0
-1
"bottom"
-1
0
-1
"sweepface_1_0_1"
-1
0
-1
"sweepface_1_0_2"
-1
0
-1
"sweepface_1_0_3"
-1
0
-1
"sweepface_1_0_4"
-1
0
"37jRZ0CNj8vQYxCrfUbKn1"
1
"2sbLwcD0z8KeR9pQQwYh$B.0"
-11
1
0
0.5061454830783556

#10159
1553
"3rZZCuu7r0YfiWGG8zx5hw"
"Cube-Bewehrung (430)"
"B500B \xd88"
0
""
0
"0"
0
0
1
"3rZZCuu7r0YfiWGG8zx5hw"
10169
10157
4
1
"1KtR1mlXr6AwkVI4_A4xTi"
1
1
2
"1C_czvAd9CRQKoIYDuIqZ3"
5
0
"bottom"
0
0
"sweepface_1_0_4-2"
0
0
"bottom-7"
4
0
"bottom"
0
"bottom-1"
0
"sweepface_1_0_4-2"
0
"sweepface_1_0_4-26"
0
"bottom-6"
4
0
"bottom"
0
"bottom-1"
0
"sweepface_1_0_4-2"
0
"sweepface_1_0_4-28"
0
"sweepface_1_0_4-1"
0
0
5
0
0
0
0
0
0
1
0
0
0
2
0
0
0
3
0
0
0
4
0
0
0
0
1
8
2
2
0
500
2
0
2
0
500
3
30
1
0
1
10306
18640
1
4
0
0
0
0
0
1
1
0
3
0
0
1
0
2
0
3
0
0
2
0
4
0
0
0
0
10193
120
120
1
59.99999999999369
2
0
0
0
0
1
1
1
0
0
1
1
14000
18640
2
14000
5100
2
460
0
0
0
0
0
0

#10159
1554
"1Hz_Q$ozj57eAcIr6FGmU5"
"Cube-Bewehrung (431)"
"B500B \xd88"
0
""
0
"0"
0
0
1
"3rZZCuu7r0YfiWGG8zx5hw"
10169
10157
4
1
"1KtR1mlXr6AwkVI4_A4xTi"
1
1
2
"1C_czvAd9CRQKoIYDuIqZ3"
5
0
"sweepface_1_0_4-1"
0
0
"bottom-6"
4
0
"bottom"
0
"bottom-1"
0
"sweepface_1_0_4-1"
0
"sweepface_1_0_4-27"
0
"bottom"
0
0
"bottom-7"
4
0
"bottom"
0
"bottom-1"
0
"sweepface_1_0_4-1"
0
"sweepface_1_0_4-25"
0
"sweepface_1_0_4-2"
0
0
5
0
0
0
0
0
0
1
0
0
0
2
0
0
0
3
0
0
0
4
0
0
0
0
1
8
2
2
2
700
1
30
2
2
700
3
0
1
0
1
10306
18640
1
4
0
0
0
0
0
1
0
0
3
2
0
0
0
1
0
3
2
0
1
0
4
0
0
0
0
10193
120
120
1
60.00000000000034
2
0
0
0
0
1
1
1
0
0
1
1
14000
18640
2
14000
5100
2
460
0
0
0
0
0
0

#10159
1555
"2CUmE6L6n21unaPI7UFXRM"
"Cube-Bewehrung (432)"
"B500B \xd88"
0
""
0
"0"
0
0
1
"3rZZCuu7r0YfiWGG8zx5hw"
10169
10157
4
1
"1KtR1mlXr6AwkVI4_A4xTi"
1
1
2
"1C_czvAd9CRQKoIYDuIqZ3"
5
0
"sweepface_1_0_4-1"
0
0
"bottom-6"
4
0
"bottom"
0
"bottom-1"
0
"sweepface_1_0_4-1"
0
"sweepface_1_0_4-27"
0
"bottom"
0
0
"bottom-7"
4
0
"bottom"
0
"bottom-1"
0
"sweepface_1_0_4-1"
0
"sweepface_1_0_4-25"
0
"sweepface_1_0_4-2"
0
0
5
0
0
0
0
0
0
1
0
0
0
2
0
0
0
3
0
0
0
4
0
0
0
0
1
8
2
2
2
300
1
30
2
2
300
3
0
1
0
1
10306
18640
1
4
0
0
0
0
0
1
0
0
3
2
0
0
0
1
0
3
2
0
1
0
4
0
0
0
0
10193
120
120
1
60.00000000000034
2
0
0
0
0
1
1
1
0
0
1
1
14000
18640
2
14000
5100
2
460
0
0
0
0
0
0

#10125
1556
"2St97fZsD4FuZIB7qhXi_n"
"EWS Erddruckwand m. D\xe4mmung+Vosatz(3-schichtig mit Spornbew) (90)"
""
0
""
0
"0"
0
""
196
0
1
0
3
0
10107
0
"3IM1vf_3f6OeloDEsC5IPr"
""
""
0
""
0
"0"
0
1
1
2
"1ek6VWMGr2XvI6BBRm2p9u"
4
"edge[3XpBGpsrr6_ObWh_hjB4C2][0]"
0
0
0
3700
0
"edge[3nxJrrgSjC7gOvxKzZKTcn][1]"
0
3700
0
3700
119.99999999999983
"edge[1h5q$8RRD409Aw_cAX7dQO][2]"
0
3700
119.99999999999983
0
119.99999999999983
"edge[2tZ2oS$Zz57A8M6_QT4S8a][3]"
0
0
119.99999999999983
0
0
0
""
32
0
1230.8000000000084
60.000000000003865
929.9667700483296
1
0
0
0
-1
0
10106
0
"2UvVC0R3H4YOgBiBoN2z23"
""
""
0
""
0
"0"
0
5
1
2
4930.800000000008
-59.99999999999545
929.9667700483296
4930.800000000008
-59.99999999999545
779.9667700483296
255
0
128
1
255
0
128
1
3
1
1
2
"1ek6VWMGr2XvI6BBRm2p9u"
1
5
1
0
0
-1083.7624811353971
0
1
0
-89.99999999999909
0
0
1
149.96677004832964
1
0
16
2314.5624811354055
150.0000000000029
580.3147071632219
6814.5624811354055
150.0000000000029
580.3147071632219
6814.5624811354055
30.00000000000307
580.3147071632219
2314.5624811354055
30.00000000000307
580.3147071632219
2314.5624811354055
150.0000000000029
630.0332299516685
6814.5624811354055
150.0000000000029
630.0332299516689
6814.5624811354055
30.00000000000307
630.0332299516708
2314.5624811354055
30.00000000000307
630.0332299516712
2314.5624811354055
290.00000000000904
950
2314.5624811354055
-109.99999999999642
950
6814.5624811354055
-109.99999999999642
950
6814.5624811354055
290.00000000000904
950
6814.5624811354055
290.00000000000904
670.0332299516706
2314.5624811354055
290.00000000000904
670.0332299516703
6814.5624811354055
-109.99999999999642
670.0332299516707
2314.5624811354055
-109.99999999999642
670.0332299516709
10
1
4
0
1
2
3
1
4
4
5
1
0
1
8
1
5
12
11
10
14
6
2
1
4
6
7
3
2
1
8
0
3
7
15
9
8
13
4
1
4
8
9
10
11
1
4
8
11
12
13
1
4
10
9
15
14
1
4
15
7
6
14
1
4
5
4
13
12
10
0
0
-1
580.3147071632219
0
1
0
-150.0000000000029
1
0
0
-6814.5624811354055
0
-1
0
30.00000000000307
-1
0
0
2314.5624811354055
-0
-0
1
-950
0
1
0
-290.00000000000904
0
-1
0
-109.99999999999642
-6.006519003434154e-17
-0.2747211278973779
-0.9615239476408233
614.0336722449517
6.05924755605093e-17
0.27472112789737796
-0.9615239476408233
564.5838692234194
0
10
-1
"top"
-1
0
-1
"sweepface_1_0_1"
-1
0
-1
"sweepface_1_0_2"
-1
0
-1
"sweepface_1_0_3"
-1
0
-1
"sweepface_1_0_4"
-1
0
-1
"bottom-1"
-1
0
-1
"sweepface_1_0_1-1"
-1
0
-1
"sweepface_1_0_3-1"
-1
0
-1
"bottom-2"
-1
0
-1
"bottom-3"
-1
0
"1KLEYkxb5DfxRurCinqw6p"
1
"2St97fZsD4FuZIB7qhXi_n.1ek6VWMGr2XvI6BBRm2p9u"
32
1
0

#10281
1561
"2VkLVicUbD7hRJPeMu1Mcl"
""
""
0
""
0
"0"
0
1230.8000000000084
200.00000000001
1099.9667700483296
1
0
0
0
1
0
"special_meshes"
""
"i:\\projects\\2026\\26-026\\02 precast\\drawings\\standard-special-meshes\\BOL-I 1.ssm"

#10125
1562
"30Ofd$Oh98$xhOJFIIUM4u"
"EWS Erddruckwand m. D\xe4mmung+Vosatz(3-schichtig mit Spornbew) (90)"
""
0
""
0
"0"
0
""
196
0
1
0
3
0
10107
0
"0rMpSfEwD5PemK9Nl7Ik9m"
""
""
0
""
0
"0"
0
1
1
2
"1ek6VWMGr2XvI6BBRm2p9u"
4
"edge[3XpBGpsrr6_ObWh_hjB4C2][0]"
0
0
0
3700
0
"edge[3nxJrrgSjC7gOvxKzZKTcn][1]"
0
3700
0
3700
119.99999999999983
"edge[1h5q$8RRD409Aw_cAX7dQO][2]"
0
3700
119.99999999999983
0
119.99999999999983
"edge[2tZ2oS$Zz57A8M6_QT4S8a][3]"
0
0
119.99999999999983
0
0
0
""
32
0
1230.8000000000084
60.00000000000409
929.9667700483296
1
0
0
0
-1
0
10106
0
"3KmpZG0Rf3VQzA1_VloJWl"
""
""
0
""
0
"0"
0
5
1
2
4930.800000000008
-59.99999999999545
929.9667700483296
4930.800000000008
-59.99999999999545
779.9667700483296
255
0
128
1
255
0
128
1
3
1
1
2
"1ek6VWMGr2XvI6BBRm2p9u"
1
5
1
0
0
-1083.7624811353971
0
1
0
-89.99999999999909
0
0
1
149.96677004832964
1
0
16
2314.5624811354055
150.0000000000029
580.3147071632219
6814.5624811354055
150.0000000000029
580.3147071632219
6814.5624811354055
30.00000000000307
580.3147071632219
2314.5624811354055
30.00000000000307
580.3147071632219
2314.5624811354055
150.0000000000029
630.0332299516685
6814.5624811354055
150.0000000000029
630.0332299516689
6814.5624811354055
30.00000000000307
630.0332299516708
2314.5624811354055
30.00000000000307
630.0332299516712
2314.5624811354055
290.00000000000904
950
2314.5624811354055
-109.99999999999642
950
6814.5624811354055
-109.99999999999642
950
6814.5624811354055
290.00000000000904
950
6814.5624811354055
290.00000000000904
670.0332299516706
2314.5624811354055
290.00000000000904
670.0332299516703
6814.5624811354055
-109.99999999999642
670.0332299516707
2314.5624811354055
-109.99999999999642
670.0332299516709
10
1
4
0
1
2
3
1
4
4
5
1
0
1
8
1
5
12
11
10
14
6
2
1
4
6
7
3
2
1
8
0
3
7
15
9
8
13
4
1
4
8
9
10
11
1
4
8
11
12
13
1
4
10
9
15
14
1
4
15
7
6
14
1
4
5
4
13
12
10
0
0
-1
580.3147071632219
0
1
0
-150.0000000000029
1
0
0
-6814.5624811354055
0
-1
0
30.00000000000307
-1
0
0
2314.5624811354055
-0
-0
1
-950
0
1
0
-290.00000000000904
0
-1
0
-109.99999999999642
-6.006519003434154e-17
-0.2747211278973779
-0.9615239476408233
614.0336722449517
6.05924755605093e-17
0.27472112789737796
-0.9615239476408233
564.5838692234194
0
10
-1
"top"
-1
0
-1
"sweepface_1_0_1"
-1
0
-1
"sweepface_1_0_2"
-1
0
-1
"sweepface_1_0_3"
-1
0
-1
"sweepface_1_0_4"
-1
0
-1
"bottom-1"
-1
0
-1
"sweepface_1_0_1-1"
-1
0
-1
"sweepface_1_0_3-1"
-1
0
-1
"bottom-2"
-1
0
-1
"bottom-3"
-1
0
"1KLEYkxb5DfxRurCinqw6p"
1
"30Ofd$Oh98$xhOJFIIUM4u.1ek6VWMGr2XvI6BBRm2p9u"
32
1
0

#10281
1566
"1GJ8oXJo98uP1gAmnMEbbC"
""
""
0
""
0
"0"
0
1230.8000000000084
200.00000000001
1099.9667700483296
1
0
0
0
1
0
"special_meshes"
""
"i:\\projects\\2026\\26-026\\02 precast\\drawings\\standard-special-meshes\\BOR-I 1.ssm"

#10281
1567
"2W8PUqGm102BJfgZpJ5$cD"
"BOR-I 1"
""
0
""
0
"0"
0
5830.800000000008
200.00000000001
1099.9667700483296
1
0
0
0
1
0
"special_meshes"
""
"i:\\projects\\2026\\26-026\\02 precast\\drawings\\standard-special-meshes\\BOR-I 1.ssm"

#10281
1568
"0h8POlzeT2_hSwVnm80qcD"
"BOL-I 1"
""
0
""
0
"0"
0
5830.800000000008
200.00000000001
1099.9667700483296
1
0
0
0
1
0
"special_meshes"
""
"i:\\projects\\2026\\26-026\\02 precast\\drawings\\standard-special-meshes\\BOL-I 1.ssm"

#10281
1569
"0l9li25S12a9AQEVhalysf"
"BOR-I 1"
""
0
""
0
"0"
0
10430.800000000008
200.00000000001
1099.9667700483296
1
0
0
0
1
0
"special_meshes"
""
"i:\\projects\\2026\\26-026\\02 precast\\drawings\\standard-special-meshes\\BOR-I 1.ssm"

#10281
1570
"3bULyn4T104QHNaUGm0D_z"
"BOL-I 1"
""
0
""
0
"0"
0
10430.800000000008
200.00000000001
1099.9667700483296
1
0
0
0
1
0
"special_meshes"
""
"i:\\projects\\2026\\26-026\\02 precast\\drawings\\standard-special-meshes\\BOL-I 1.ssm"

#10281
1573
"2kPysZBRb0pOTkzIL$MC65"
""
""
0
""
0
"0"
0
15030.800000000008
200.00000000001
1099.9667700483296
1
0
0
0
1
0
"special_meshes"
""
"BOR-I 2.ssm"

#10281
1574
"1PJj$WSfD44xjyy7w_jxZe"
""
""
0
""
0
"0"
0
15030.800000000008
200.00000000001
1099.9667700483296
1
0
0
0
1
0
"special_meshes"
""
"BOL-I 2.ssm"

#10159
1575
"3rQFqzdyz2LwKtmD_u53qZ"
"Cube-Bewehrung (433)"
"SpSt 1470/1620 \xd87.2"
0
""
0
"0"
0
0
0
10169
10157
4
1
"1KtR1mlXr6AwkVI4_A4xTi"
1
1
2
"1C_czvAd9CRQKoIYDuIqZ3"
5
0
"bottom-1"
0
0
"sweepface_1_0_4-26"
0
0
"bottom-10"
0
0
"bottom-13"
0
0
"sweepface_1_0_4-25"
0
0
5
0
0
0
0
0
0
1
0
0
0
2
0
0
0
3
0
0
0
4
0
0
0
0
2
7.2
2
2
0
81.4
2
0
2
0
81.4
3
0
1
0
0
4
0
0
0
0
0
1
1
0
3
0
0
1
0
2
0
3
0
0
2
0
4
0
0
0
0
10193
20
20
2
45
2
0
0
0
2
1
0
0
0

#10159
1576
"1gOTFsO0v5XBymRJ_TX70X"
"Cube-Bewehrung (434)"
"SpSt 1470/1620 \xd87.2"
0
""
0
"0"
0
0
1
"3rQFqzdyz2LwKtmD_u53qZ"
10169
10157
4
1
"1KtR1mlXr6AwkVI4_A4xTi"
1
1
2
"1C_czvAd9CRQKoIYDuIqZ3"
5
0
"bottom-10"
0
0
"bottom-1"
0
0
"sweepface_1_0_4-25"
0
0
"sweepface_1_0_4-26"
0
0
"bottom-13"
0
0
5
0
0
0
0
0
0
1
0
0
0
2
0
0
0
3
0
0
0
4
0
0
0
0
2
7.2
2
2
1
41.4
0
0
2
1
41.4
4
0
1
0
0
4
0
0
0
0
0
1
3
0
3
1
0
3
0
0
0
3
1
0
2
0
0
0
0
0
0
10193
-17
-17
1
213.99999999998673
2
0
0
0
0
1
0
0
0

#10159
1577
"25WfwTPSH7lgYBAv_T9syn"
"Cube-Bewehrung (435)"
"B500B \xd88"
0
""
0
"0"
0
0
1
"1Zbeq2aTz7WOrNNWzlTOcn"
10169
10157
4
1
"0I$sUKGYX1hePiS5YK1Ueq"
1
1
1
0
6
0
"sweepface_1_0_3"
0
0
"bottom"
0
0
"sweepface_1_0_4"
0
0
"top"
0
0
"sweepface_1_0_2"
0
0
"sweepface_1_0_1"
0
0
6
0
0
0
0
0
0
1
0
0
0
2
0
0
0
3
0
0
0
4
0
0
0
5
0
0
0
0
1
8
10
2
1
30
0
25
2
1
30
5
25
2
5
25
3
25
2
3
25
0
25
2
0
25
1
895
2
1
895
5
25
2
3
25
5
25
2
3
25
0
25
2
0
25
1
30
2
1
30
5
25
11
2
4
8
110
1.5707963267948966
0
1
4
0
0
4
0
0
0
4
0
0
0
4
0
0
0
4
0
0
0
4
0
0
0
4
0
0
0
4
0
0
0
4
0
0
0
0
0
2
4
8
110
1.5707963267948966
0
1
4
0
0
0
0
1
2
0
3
1
0
0
0
2
0
3
1
0
0
0
4
0
0
0
0
10193
30
60
2
100
6
0
0
0
1
1
0
0
0

#10159
1578
"2axxV5r7bFh8DUvWv_eEFe"
"Cube-Bewehrung (436)"
"B500B \xd88"
0
""
0
"0"
0
0
1
"1Zbeq2aTz7WOrNNWzlTOcn"
10169
10157
4
2
"2sbLwcD0z8KeR9pQQwYh$B"
1
1
1
0
5
0
"sweepface_1_0_1"
0
0
"bottom"
0
0
"top"
0
0
"sweepface_1_0_4"
0
0
"sweepface_1_0_3"
0
0
"1KtR1mlXr6AwkVI4_A4xTi"
1
1
2
"1C_czvAd9CRQKoIYDuIqZ3"
1
0
"sweepface_1_0_4-24"
0
0
6
0
0
0
0
0
0
1
0
0
0
2
0
0
0
3
0
0
0
4
0
1
0
0
0
0
0
0
1
8
10
2
1
30
0
25
2
1
30
4
25
2
4
25
2
25
2
2
25
0
25
2
0
25
1
895
2
1
895
4
25
2
2
25
4
25
2
2
25
0
25
2
0
25
1
30
2
1
30
4
25
11
2
4
8
110
1.5707963267948966
0
1
4
0
0
4
0
0
0
4
0
0
0
4
0
0
0
4
0
0
0
4
0
0
0
4
0
0
0
4
0
0
0
4
0
0
0
0
0
2
4
8
110
1.5707963267948966
0
1
4
0
0
0
0
1
3
0
3
1
0
0
0
3
0
3
1
0
0
0
5
0
0
0
0
10193
30
60
2
100
6
0
0
0
1
1
0
0
0
