"DICAD ASC"
638
2
1
10094
0
0
1
20050
0
1
2
2
0
"NotListRelevant"
""
""
0
0
""
19
""
"STRAKON 2026 .2"
0
0
0
0
0
""
0
0
0
0
0
0
"0oKgrUbez4qOcbM9vcrxra"
1789632269
0
0
0
0
0
""

#10125
1
"24ZCwD5ZHBIQqCrW$GzC2M"
"St\xfctze (3)"
""
0
""
0
"0"
0
""
19
0
1
0
0
0
-375
-325
-1000
1
0
0
0
1
0
1
1
2
"2Kl7cGyqn8nQs4jH$uh_Y9"
4
"edge[0wBLN4BXXAFR7Cqtrm9$kW][0]"
0
0
0
750
0
"edge[0sOyKxgHv2$hSLjnncF$B4][1]"
0
750
0
750
650
"edge[2uTqwQOzr4jhXrE1RswGfI][2]"
0
750
650
0
650
"edge[0bjd0M7BH8Og7G7lGuFZJE][3]"
0
0
650
0
0
0
""
4
0
1
2
750
650
0
750
650
6000
-1
0
1
1
2
"2Kl7cGyqn8nQs4jH$uh_Y9"
1
5
1
0
0
375
0
1
0
325
0
0
1
-1000
1
0
8
-750
-650
6000
0
-650
6000
0
0
6000
-750
0
6000
-750
-650
0
-750
0
0
0
0
0
0
-650
0
6
1
4
0
1
2
3
1
4
4
5
6
7
1
4
4
7
1
0
1
4
7
6
2
1
1
4
6
5
3
2
1
4
5
4
0
3
6
0
0
1
-6000
-0
-0
-1
0
0
-1
0
-650
1
0
0
-0
0
1
0
-0
-1
0
0
-750
0
6
-1
"top"
-1
0
-1
"bottom"
-1
0
-1
"sweepface_1_0_1"
-1
0
-1
"sweepface_1_0_2"
-1
0
-1
"sweepface_1_0_3"
-1
0
-1
"sweepface_1_0_4"
-1
0
"1Kfa7gdUv4F88f9RKY5FF5"
1
"24ZCwD5ZHBIQqCrW$GzC2M.2Kl7cGyqn8nQs4jH$uh_Y9"
4
1
0
