"DICAD ASC"
638
2
1
10094
0
0
1
20050
0
1
2
2
0
"NotListRelevant"
""
""
0
0
""
19
""
"STRAKON 2026 .2"
0
0
0
0
0
""
0
0
0
0
0
0
"2g3QOa6CD2kPMjjkaQOnRC"
1789536229
0
0
0
0
0
""

#10125
1
"3n07xf26TAju8EPWz7Hh1E"
"St\xfctze (2)"
""
0
""
0
"0"
0
""
19
0
1
0
0
0
-375
-325
-1000
1
0
0
0
1
0
1
1
2
"0axgFDgpPFrvmQoEthbwQk"
4
"edge[1gAjWOdoTBjOujukrkulbM][0]"
0
0
0
750
0
"edge[2gQZsFZ7rAgxRViYC9qDP8][1]"
0
750
0
750
650
"edge[2q3TJMlV95ngTU3zxujySx][2]"
0
750
650
0
650
"edge[3pfo1cHcf5MuwS0sZZjBTt][3]"
0
0
650
0
0
0
""
4
0
1
2
750
650
0
750
650
6000
-1
0
1
1
2
"0axgFDgpPFrvmQoEthbwQk"
1
0
16
375
75
5000
375
325
5000
-375
325
5000
-375
-325
5000
75
75
5000
375
-325
5000
375
-125
5000
75
-125
5000
-375
-325
-1000
-375
325
-1000
375
325
-1000
375
-325
-1000
375
-125
4500
375
75
4500
75
75
4500
75
-125
4500
10
1
8
0
1
2
3
5
6
7
4
1
4
8
9
10
11
1
4
3
8
11
5
1
8
0
13
12
6
5
11
10
1
1
4
1
10
9
2
1
4
2
9
8
3
1
4
13
14
15
12
1
4
12
15
7
6
1
4
15
14
4
7
1
4
14
13
0
4
10
0
0
1
-5000
-0
-0
-1
-1000
0
-1
0
-325
1
0
0
-375
0
1
0
-325
-1
0
0
-375
-0
-0
1
-4500
-0
1
-0
125
1
-0
-0
-75
-0
-1
-0
75
0
10
-1
"top"
-1
0
-1
"bottom"
-1
0
-1
"sweepface_1_0_1"
-1
0
-1
"sweepface_1_0_2"
-1
0
-1
"sweepface_1_0_3"
-1
0
-1
"sweepface_1_0_4"
-1
0
-1
"top-1"
-1
0
-1
"sweepface_1_0_1-1"
-1
0
-1
"sweepface_1_0_2-1"
-1
0
-1
"sweepface_1_0_3-1"
-1
0
"3TfFMYApbAX9u9BnL5_h98"
1
"3n07xf26TAju8EPWz7Hh1E.0axgFDgpPFrvmQoEthbwQk"
4
1
0
